<svg xmlns="http://www.w3.org/2000/svg" viewBox="0 0 24 24" fill="currentColor">
  <path d="M12 2a10 10 0 100 20 10 10 0 000-20zm7.93 9h-3.17a15.8 15.8 0 00-1.04-5.05A8.02 8.02 0 0119.93 11zM12 4c.9 0 2.25 2.2 2.93 7H9.07C9.75 6.2 11.1 4 12 4zM4.07 13h3.17c.19 1.8.6 3.54 1.22 5.05A8.02 8.02 0 014.07 13zM7.24 11H4.07a8.02 8.02 0 014.1-5.05A15.8 15.8 0 007.24 11zm0 2c.18 1.66.55 3.21 1.08 4.52C6.7 16.4 5.5 14.85 5.1 13h2.14zm1.83 0h5.86c-.68 4.8-2.03 7-2.93 7-.9 0-2.25-2.2-2.93-7zm7.62 0h2.14c-.4 1.85-1.6 3.4-3.22 4.52.53-1.31.9-2.86 1.08-4.52zm-1.76-2H9.07c.19-1.66.55-3.21 1.08-4.52C10.7 5.6 11.1 5 12 5c.9 0 1.3.6 1.85 1.48.53 1.31.9 2.86 1.08 4.52z"/>
</svg>
